<svg xmlns="http://www.w3.org/2000/svg" viewBox="8 8 64 64" fill="none">
  <defs>
    <linearGradient id="amberGrad" x1="0" y1="1" x2="1" y2="0">
      <stop offset="0%" stop-color="#E8960F"/>
      <stop offset="50%" stop-color="#F5A623"/>
      <stop offset="100%" stop-color="#FCD34D"/>
    </linearGradient>
    <linearGradient id="bgGrad" x1="0" y1="0" x2="0" y2="1">
      <stop offset="0%" stop-color="#1E293B"/>
      <stop offset="100%" stop-color="#0F172A"/>
    </linearGradient>
  </defs>

  <rect x="8" y="8" width="64" height="64" rx="16" fill="url(#bgGrad)" />
  
  <path d="M 50 32 
           A 10 10 0 0 0 30 32 
           C 30 40, 50 40, 50 48 
           A 10 10 0 0 1 30 48" 
        fill="none" stroke="url(#amberGrad)" stroke-width="8" stroke-linecap="round" />
        
  <path d="M 54 18 Q 54 22 58 22 Q 54 22 54 26 Q 54 22 50 22 Q 54 22 54 18 Z" fill="#FFFFFF" opacity="0.9"/>
  <path d="M 24 54 Q 24 57 27 57 Q 24 57 24 60 Q 24 57 21 57 Q 24 57 24 54 Z" fill="#FCD34D" opacity="0.6"/>
</svg>